<?xml version="1.0" encoding="UTF-8" standalone="no"?>
<!DOCTYPE svg PUBLIC "-//W3C//DTD SVG 1.1//EN" "http://www.w3.org/Graphics/SVG/1.1/DTD/svg11.dtd">
<svg width="100%" height="100%" viewBox="0 0 1070 1070" version="1.1" xmlns="http://www.w3.org/2000/svg" xmlns:xlink="http://www.w3.org/1999/xlink" xml:space="preserve" xmlns:serif="http://www.serif.com/" style="fill-rule:evenodd;clip-rule:evenodd;stroke-linejoin:round;stroke-miterlimit:2;">
    <g transform="matrix(1,0,0,1,-1682,-1599)">
        <g id="Logo" transform="matrix(1.74837,0,0,1.74837,1682,-1196.64)">
            <rect x="0" y="1599" width="612" height="612" style="fill:none;"/>
            <clipPath id="_clip1">
                <rect x="0" y="1599" width="612" height="612"/>
            </clipPath>
            <g clip-path="url(#_clip1)">
                <g transform="matrix(1,0,0,1,-759,0)">
                    <rect x="759" y="1599" width="612" height="612" style="fill:white;"/>
                </g>
                <g id="lock" transform="matrix(24.2925,0,0,24.2925,63.0748,1662.07)">
                    <path d="M15.8,8L14,8L14,5.6C14,2.703 12.665,1 10,1C7.335,1 6,2.703 6,5.6L6,8L4,8C3.447,8 3,8.646 3,9.199L3,17C3,17.549 3.428,18.139 3.951,18.307L5.148,18.694C5.672,18.861 6.55,19 7.1,19L12.9,19C13.449,19 14.328,18.861 14.851,18.693L16.047,18.306C16.571,18.139 17,17.549 17,17L17,9.199C17,8.646 16.352,8 15.8,8ZM12,8L8,8L8,5.199C8,3.754 8.797,3 10,3C11.203,3 12,3.754 12,5.199L12,8Z" style="fill:rgb(93,93,93);fill-rule:nonzero;"/>
                </g>
            </g>
        </g>
    </g>
</svg>
