<?xml version="1.0" encoding="UTF-8" standalone="no"?><!DOCTYPE svg PUBLIC "-//W3C//DTD SVG 1.1//EN" "http://www.w3.org/Graphics/SVG/1.1/DTD/svg11.dtd"><svg width="100%" height="100%" viewBox="0 0 58 58" version="1.1" xmlns="http://www.w3.org/2000/svg" xmlns:xlink="http://www.w3.org/1999/xlink" xml:space="preserve" xmlns:serif="http://www.serif.com/" style="fill-rule:evenodd;clip-rule:evenodd;stroke-linejoin:round;stroke-miterlimit:2;"><g id="average"><path d="M28.74,0.12c15.829,0 28.68,12.851 28.68,28.68c-0,15.829 -12.851,28.68 -28.68,28.68c-15.829,0 -28.68,-12.851 -28.68,-28.68c-0,-15.829 12.851,-28.68 28.68,-28.68Zm-4.72,42.96c-0,-0.356 0.102,-0.64 0.307,-0.853c0.204,-0.214 0.493,-0.32 0.866,-0.32l7.04,-0c0.303,-0 0.583,0.106 0.84,0.32c0.258,0.213 0.387,0.497 0.387,0.853l-0,6.453c-0,0.32 -0.107,0.605 -0.32,0.854c-0.213,0.249 -0.516,0.373 -0.907,0.373l-7.04,0c-0.782,0 -1.173,-0.409 -1.173,-1.227l-0,-6.453Zm-0,-35.067c-0,-0.782 0.436,-1.173 1.307,-1.173l6.933,0c0.782,0 1.173,0.391 1.173,1.173l0,28.747c0,0.338 -0.097,0.618 -0.293,0.84c-0.196,0.222 -0.489,0.333 -0.88,0.333l-6.933,0c-0.267,0 -0.551,-0.106 -0.854,-0.32c-0.302,-0.213 -0.453,-0.497 -0.453,-0.853l-0,-28.747Z" style="fill:#fff;"/></g></svg>