<?xml version="1.0" encoding="UTF-8" standalone="no"?><!DOCTYPE svg PUBLIC "-//W3C//DTD SVG 1.1//EN" "http://www.w3.org/Graphics/SVG/1.1/DTD/svg11.dtd"><svg width="100%" height="100%" viewBox="0 0 58 58" version="1.1" xmlns="http://www.w3.org/2000/svg" xmlns:xlink="http://www.w3.org/1999/xlink" xml:space="preserve" xmlns:serif="http://www.serif.com/" style="fill-rule:evenodd;clip-rule:evenodd;stroke-linejoin:round;stroke-miterlimit:2;"><g id="insecure"><path d="M28.74,0.12c15.829,0 28.68,12.851 28.68,28.68c-0,15.829 -12.851,28.68 -28.68,28.68c-15.829,0 -28.68,-12.851 -28.68,-28.68c-0,-15.829 12.851,-28.68 28.68,-28.68Zm15.464,37.035l-8.357,-8.357l8.355,-8.355c0.166,-0.167 0.26,-0.392 0.26,-0.627c-0,-0.235 -0.094,-0.461 -0.26,-0.627l-5.853,-5.854c-0.344,-0.344 -0.91,-0.344 -1.254,-0l-8.356,8.356l-8.355,-8.356c-0.332,-0.333 -0.921,-0.333 -1.254,-0l-5.854,5.853c-0.343,0.344 -0.343,0.91 0,1.254l8.356,8.356l-8.357,8.357c-0.343,0.345 -0.343,0.91 -0,1.254l5.853,5.854c0.166,0.166 0.392,0.26 0.627,0.26c0.235,0 0.461,-0.094 0.627,-0.26l8.357,-8.357l8.357,8.356c0.174,0.173 0.4,0.26 0.627,0.26c0.228,0 0.454,-0.087 0.628,-0.26l5.854,-5.853c0.343,-0.344 0.343,-0.91 -0.001,-1.254Z" style="fill:#fff;"/></g></svg>