<?xml version="1.0" encoding="UTF-8" standalone="no"?><!DOCTYPE svg PUBLIC "-//W3C//DTD SVG 1.1//EN" "http://www.w3.org/Graphics/SVG/1.1/DTD/svg11.dtd"><svg width="100%" height="100%" viewBox="0 0 58 58" version="1.1" xmlns="http://www.w3.org/2000/svg" xmlns:xlink="http://www.w3.org/1999/xlink" xml:space="preserve" xmlns:serif="http://www.serif.com/" style="fill-rule:evenodd;clip-rule:evenodd;stroke-linejoin:round;stroke-miterlimit:2;"><g id="secure"><path d="M28.74,0.12c15.829,0 28.68,12.851 28.68,28.68c-0,15.829 -12.851,28.68 -28.68,28.68c-15.829,0 -28.68,-12.851 -28.68,-28.68c-0,-15.829 12.851,-28.68 28.68,-28.68Zm18.076,19.326l-6.138,-6.139c-0.446,-0.446 -1.179,-0.446 -1.625,-0l-16.306,16.306l-4.322,-4.321c-0.446,-0.446 -1.179,-0.446 -1.625,-0l-6.139,6.139c-0.445,0.446 -0.445,1.179 0,1.625l11.238,11.235c0.215,0.215 0.507,0.336 0.812,0.336c0.014,0 0.026,-0.007 0.039,-0.007c0.012,-0 0.024,0.006 0.036,0.006c0.295,0 0.587,-0.112 0.812,-0.336l23.218,-23.22c0.216,-0.215 0.337,-0.507 0.337,-0.812c-0,-0.305 -0.121,-0.597 -0.337,-0.812Z" style="fill:#fff;"/></g></svg>